<?xml version="1.0" standalone="no"?><!DOCTYPE svg PUBLIC "-//W3C//DTD SVG 1.1//EN" "http://www.w3.org/Graphics/SVG/1.1/DTD/svg11.dtd"><svg t="1607866684639" class="icon" viewBox="0 0 1024 1024" version="1.1" xmlns="http://www.w3.org/2000/svg" p-id="5953" xmlns:xlink="http://www.w3.org/1999/xlink" width="200" height="200"><defs><style type="text/css"></style></defs><path d="M768.53 423.254c-5.705 70.988-44.085 135.69-101.495 179.6l0.021 18.542c119.89 20.822 210.16 69.202 268.25 143.774a123.118 123.118 0 0 1 25.889 75.233v21.078c0 47.442-38.876 86.06-86.666 86.06H152.202c-47.79 0-86.666-38.618-86.666-86.06v-21.078c0-27.11 9.191-53.835 25.889-75.254 58.111-74.573 148.38-122.952 268.27-143.774l-0.02-18.542c-57.365-43.926-95.198-108.602-100.823-179.579H768.53zM385.969 73.728l255.348 0.469c70.615 0.07 127.823 57.301 127.823 127.875 0.128 40.558 0.128 81.094 0.128 121.652l-0.001 12.148H258.123V201.603a127.687 127.687 0 0 1 37.396-90.427 127.84 127.84 0 0 1 90.45-37.448z m204.193 109.227H458.96c-24.13 0-43.69 19.56-43.69 43.69s19.56 43.691 43.69 43.691h131.202c24.13 0 43.69-19.561 43.69-43.69 0-24.13-19.56-43.691-43.69-43.691z" p-id="5954"></path></svg>