<?xml version="1.0" standalone="no"?><!DOCTYPE svg PUBLIC "-//W3C//DTD SVG 1.1//EN" "http://www.w3.org/Graphics/SVG/1.1/DTD/svg11.dtd"><svg t="1607866634574" class="icon" viewBox="0 0 1024 1024" version="1.1" xmlns="http://www.w3.org/2000/svg" p-id="4201" xmlns:xlink="http://www.w3.org/1999/xlink" width="200" height="200"><defs><style type="text/css"></style></defs><path d="M853 544c42.526 0 77 34.474 77 77v232c0 42.526-34.474 77-77 77H621c-42.526 0-77-34.474-77-77V621c0-42.526 34.474-77 77-77h232z m-449 0c42.526 0 77 34.474 77 77v232c0 42.526-34.474 77-77 77H172c-42.526 0-77-34.474-77-77V621c0-42.526 34.474-77 77-77h232z m0-449c42.526 0 77 34.474 77 77v232c0 42.526-34.474 77-77 77H172c-42.526 0-77-34.474-77-77V172c0-42.526 34.474-77 77-77h232z m449 0c42.526 0 77 34.474 77 77v232c0 42.526-34.474 77-77 77H621c-42.526 0-77-34.474-77-77V172c0-42.526 34.474-77 77-77h232z m-18 65H639c-16.403 0-29.731 13.164-29.996 29.504L609 190v196c0 16.403 13.164 29.731 29.504 29.996L639 416h196c16.403 0 29.731-13.164 29.996-29.504L865 386V190c0-16.569-13.431-30-30-30z" fill="#d4237a" p-id="4202"></path></svg>